<svg xmlns="http://www.w3.org/2000/svg" viewBox="0 0 372.5 128" style=""><defs><style>.cls-1{fill:none;stroke:#000;stroke-width:1.5px;}</style></defs><title>Asset 7</title><g id="Layer_2" data-name="Layer 2"><g id="Layer_1-2" data-name="Layer 1"><path d="M39.92,69a8,8,0,0,0-3.12-3.22,9.08,9.08,0,0,0-4.38-1,8.18,8.18,0,0,0-3.57.79,8.59,8.59,0,0,0-2.92,2.25,11,11,0,0,0-2,3.56A14.35,14.35,0,0,0,23.25,76a13.79,13.79,0,0,0,.72,4.6,10.7,10.7,0,0,0,2,3.51,8.89,8.89,0,0,0,2.91,2.22,8.27,8.27,0,0,0,3.56.78,8.76,8.76,0,0,0,4.89-1.36,9.41,9.41,0,0,0,3.32-4L45.14,84A14.63,14.63,0,0,1,43,87.36a13.35,13.35,0,0,1-2.92,2.55,13.49,13.49,0,0,1-3.57,1.63,14.6,14.6,0,0,1-4.12.57,14.28,14.28,0,0,1-5.84-1.19,13.72,13.72,0,0,1-4.63-3.32,15.29,15.29,0,0,1-3-5.1A18.75,18.75,0,0,1,17.77,76a17.64,17.64,0,0,1,1.15-6.47,15.37,15.37,0,0,1,3.13-5.08,14.42,14.42,0,0,1,4.66-3.33,13.76,13.76,0,0,1,5.71-1.2,14.76,14.76,0,0,1,5.44,1,12.34,12.34,0,0,1,4.49,3h3.08v5Z" class="XYOOyhZl_0"></path><path d="M50.35,76.08a18.77,18.77,0,0,1,1.16-6.56,14.94,14.94,0,0,1,3.15-5.08,13.75,13.75,0,0,1,4.8-3.27,17.13,17.13,0,0,1,12.29,0,13.54,13.54,0,0,1,4.79,3.24,14.68,14.68,0,0,1,3.11,5,19.82,19.82,0,0,1,0,13.08,15.19,15.19,0,0,1-3.11,5.12A13.87,13.87,0,0,1,71.75,91a15.63,15.63,0,0,1-6.16,1.19A15.84,15.84,0,0,1,59.38,91a13.87,13.87,0,0,1-4.78-3.3,15.27,15.27,0,0,1-3.11-5.08A19,19,0,0,1,50.35,76.08Zm5.77,0a14,14,0,0,0,.75,4.72,10.85,10.85,0,0,0,2.05,3.59,9.11,9.11,0,0,0,3,2.28,8.43,8.43,0,0,0,3.65.81,8.82,8.82,0,0,0,6.79-3.06,10.62,10.62,0,0,0,2-3.59,14.39,14.39,0,0,0,.74-4.75,15,15,0,0,0-.74-4.89,10.1,10.1,0,0,0-2-3.57,8.25,8.25,0,0,0-3-2.17,9.75,9.75,0,0,0-3.78-.73,9.15,9.15,0,0,0-3.65.73,8.65,8.65,0,0,0-3,2.17,10.18,10.18,0,0,0-2.05,3.57A14.77,14.77,0,0,0,56.12,76.08Z" class="XYOOyhZl_1"></path><path d="M106.63,86.22h4.28V72.36a7.27,7.27,0,0,0-1.77-5.29,6.84,6.84,0,0,0-5.09-1.8,9,9,0,0,0-3.83.91,19.71,19.71,0,0,0-3.67,2.26V86.22h4.28v5H86.65v-5h4.22V66H86.65v-5h9.67v3.57h.06a24,24,0,0,1,2.06-1.61,15.52,15.52,0,0,1,2.3-1.32,14.35,14.35,0,0,1,2.51-.88,11.62,11.62,0,0,1,2.74-.32,13.71,13.71,0,0,1,4.39.67,8.6,8.6,0,0,1,3.34,2.06,9,9,0,0,1,2.13,3.53,15.73,15.73,0,0,1,.74,5.08V86.22h4.22v5H106.63Z" class="XYOOyhZl_2"></path><path d="M143.62,67a4.54,4.54,0,0,0-1.48-1.41,7,7,0,0,0-2-.79,9.71,9.71,0,0,0-2.17-.25,8.5,8.5,0,0,0-2.15.26,5.16,5.16,0,0,0-1.69.77,3.63,3.63,0,0,0-1.1,1.21,3.3,3.3,0,0,0-.39,1.6,3.25,3.25,0,0,0,.92,2.42,8.85,8.85,0,0,0,3.09,1.65l5.83,2a11.43,11.43,0,0,1,5.48,3.43,8.05,8.05,0,0,1,1.73,5.18,8.44,8.44,0,0,1-.81,3.71,8.14,8.14,0,0,1-2.28,2.87A11,11,0,0,1,143,91.51a15.28,15.28,0,0,1-4.63.66A12.52,12.52,0,0,1,132.62,91a8.58,8.58,0,0,1-3.43-3h-3V83h6.07a4.06,4.06,0,0,0,.54,2.15,4.25,4.25,0,0,0,1.44,1.45,6.4,6.4,0,0,0,2,.82,9.84,9.84,0,0,0,2.3.27,8.76,8.76,0,0,0,2.19-.28,6.07,6.07,0,0,0,1.86-.82,4.2,4.2,0,0,0,1.28-1.31,3.23,3.23,0,0,0,.47-1.73,3.53,3.53,0,0,0-1-2.49,8.26,8.26,0,0,0-3.23-1.84L134.32,77a12.33,12.33,0,0,1-5.26-3.21,7.13,7.13,0,0,1-1.72-4.88,8.79,8.79,0,0,1,.72-3.57,7.94,7.94,0,0,1,2.08-2.83,9.94,9.94,0,0,1,3.33-1.86A13.75,13.75,0,0,1,138,60a14.24,14.24,0,0,1,5.45.91,10,10,0,0,1,3.95,3.1h2.85v5h-6A3.69,3.69,0,0,0,143.62,67Z" class="XYOOyhZl_3"></path><path d="M155.35,76.08a18.77,18.77,0,0,1,1.16-6.56,14.94,14.94,0,0,1,3.15-5.08,13.75,13.75,0,0,1,4.8-3.27,17.13,17.13,0,0,1,12.29,0,13.54,13.54,0,0,1,4.79,3.24,14.68,14.68,0,0,1,3.11,5,19.82,19.82,0,0,1,0,13.08,15.19,15.19,0,0,1-3.11,5.12A13.87,13.87,0,0,1,176.75,91a15.63,15.63,0,0,1-6.16,1.19A15.84,15.84,0,0,1,164.38,91a13.87,13.87,0,0,1-4.78-3.3,15.27,15.27,0,0,1-3.11-5.08A19,19,0,0,1,155.35,76.08Zm5.77,0a14,14,0,0,0,.75,4.72,10.85,10.85,0,0,0,2,3.59,9.11,9.11,0,0,0,3,2.28,8.43,8.43,0,0,0,3.65.81,8.82,8.82,0,0,0,6.79-3.06,10.62,10.62,0,0,0,2-3.59,14.39,14.39,0,0,0,.74-4.75,15,15,0,0,0-.74-4.89,10.1,10.1,0,0,0-2-3.57,8.25,8.25,0,0,0-3-2.17,9.75,9.75,0,0,0-3.78-.73,9.15,9.15,0,0,0-3.65.73,8.65,8.65,0,0,0-3,2.17,10.18,10.18,0,0,0-2,3.57A14.77,14.77,0,0,0,161.12,76.08Z" class="XYOOyhZl_4"></path><path d="M191.42,45.67h9.84V86.22h4.57v5H191.42v-5h4.39V50.71h-4.39Z" class="XYOOyhZl_5"></path><path d="M216.32,76.79a13.08,13.08,0,0,0,.19,2.35,12.69,12.69,0,0,0,.54,2,8.45,8.45,0,0,0,3.47,4.41,10,10,0,0,0,5.41,1.48,16.21,16.21,0,0,0,4.61-.66,21.94,21.94,0,0,0,4.7-2.07l2.2,3.73a23.9,23.9,0,0,1-6,3,19.78,19.78,0,0,1-6.27,1,15.4,15.4,0,0,1-5.7-1A12.16,12.16,0,0,1,215,88a14.22,14.22,0,0,1-3-5,20.87,20.87,0,0,1-1.07-7,20.18,20.18,0,0,1,.91-6.14,14.4,14.4,0,0,1,2.71-5A12.92,12.92,0,0,1,219,61.38a14.42,14.42,0,0,1,6.22-1.26,13.76,13.76,0,0,1,5.72,1,10.33,10.33,0,0,1,3.75,2.75,12,12,0,0,1,2.2,3.91,23.29,23.29,0,0,1,1,4.48c.1.75.16,1.5.19,2.26s0,1.5,0,2.23Zm8.52-12.1a9.32,9.32,0,0,0-3.32.54,6.76,6.76,0,0,0-2.42,1.55,7.66,7.66,0,0,0-1.59,2.48,14.52,14.52,0,0,0-.9,3.28h15.73a14.38,14.38,0,0,0-.54-3.14,7,7,0,0,0-1.3-2.49,5.92,5.92,0,0,0-2.26-1.64A8.72,8.72,0,0,0,224.84,64.69Z" class="XYOOyhZl_6"></path><path class="cls-1 XYOOyhZl_7" d="M245.35,60.91h9.9V86.22h4.57v5H245.41v-5h4.34V66h-4.4Zm3.37-10.75a3.4,3.4,0,0,1,.31-1.45,4,4,0,0,1,.82-1.21,4.1,4.1,0,0,1,1.21-.82,3.79,3.79,0,0,1,1.5-.3,3.59,3.59,0,0,1,1.45.3,3.9,3.9,0,0,1,2,2,3.4,3.4,0,0,1,.31,1.45,3.62,3.62,0,0,1-.31,1.49,4.18,4.18,0,0,1-.82,1.24,3.5,3.5,0,0,1-1.2.85,3.44,3.44,0,0,1-1.45.31,3.63,3.63,0,0,1-1.5-.31,3.54,3.54,0,0,1-1.21-.85,4.18,4.18,0,0,1-.82-1.24A3.62,3.62,0,0,1,248.72,50.16Z"></path><path class="cls-1 XYOOyhZl_8" d="M264.83,60.91h9.67v3.54h.06a22.24,22.24,0,0,1,2.1-1.59,15.34,15.34,0,0,1,2.3-1.31,14.24,14.24,0,0,1,2.5-.88,11.49,11.49,0,0,1,2.71-.32,12.24,12.24,0,0,1,5.65,1.22,8.23,8.23,0,0,1,3.67,3.79q1.11-1,2.34-1.92a17.61,17.61,0,0,1,2.56-1.6,16.56,16.56,0,0,1,2.8-1.08,11.4,11.4,0,0,1,3.05-.41,13.82,13.82,0,0,1,4.42.67A8.6,8.6,0,0,1,312,63.08a8.77,8.77,0,0,1,2.1,3.53,16.06,16.06,0,0,1,.71,5.08V86.22H319v5H304.85v-5h4.28V72.36a7.27,7.27,0,0,0-1.76-5.29,6.75,6.75,0,0,0-5.06-1.8,9.57,9.57,0,0,0-4,.94,12.11,12.11,0,0,0-3.51,2.37V86.22H299v5H284.81v-5h4.28V72.36a7.27,7.27,0,0,0-1.77-5.29,6.82,6.82,0,0,0-5.08-1.8,9.06,9.06,0,0,0-3.84.91,19.32,19.32,0,0,0-3.66,2.26V86.22H279v5H264.83v-5h4.22V66h-4.22Z"></path><path class="cls-1 XYOOyhZl_9" d="M347.1,88.59a10.57,10.57,0,0,1-3.47,2.46,10.92,10.92,0,0,1-4.5.88,15.06,15.06,0,0,1-5.73-1.07,12.85,12.85,0,0,1-4.6-3.13,14.56,14.56,0,0,1-3-5.07,19.73,19.73,0,0,1-1.1-6.87,18.6,18.6,0,0,1,1-6.4,14,14,0,0,1,3-4.92,13.34,13.34,0,0,1,4.66-3.17,15.76,15.76,0,0,1,6.06-1.13,15.32,15.32,0,0,1,4.12.52,11.08,11.08,0,0,1,3.56,1.77V60.91h5.45V90.06q0,7.2-3.41,10.9t-10.62,3.69a24,24,0,0,1-3.31-.24,21.29,21.29,0,0,1-3.42-.74,22.43,22.43,0,0,1-3.28-1.31,14.49,14.49,0,0,1-2.94-1.93L328.5,96a12.24,12.24,0,0,0,2,1.41,14.4,14.4,0,0,0,2.42,1.1,19.41,19.41,0,0,0,2.67.72,15,15,0,0,0,2.75.26,14.54,14.54,0,0,0,3.91-.47A5.7,5.7,0,0,0,345,97.37a7.56,7.56,0,0,0,1.59-3.21A20.88,20.88,0,0,0,347.1,89Zm-7.27-1.4a10.56,10.56,0,0,0,2.47-.27,9.78,9.78,0,0,0,2-.69,7.89,7.89,0,0,0,2.78-2.15V67.47a9.08,9.08,0,0,0-3.44-1.9,13.5,13.5,0,0,0-4-.59,9.19,9.19,0,0,0-3.63.72,8.48,8.48,0,0,0-3,2.09,9.79,9.79,0,0,0-2,3.37,13.15,13.15,0,0,0-.74,4.57,15.76,15.76,0,0,0,.71,5,10.15,10.15,0,0,0,2,3.59,7.87,7.87,0,0,0,3,2.18A9.83,9.83,0,0,0,339.83,87.19Z"></path><path d="M359,127H13.5A12.52,12.52,0,0,1,1,114.5V13.5A12.52,12.52,0,0,1,13.5,1H359a12.52,12.52,0,0,1,12.5,12.5v101A12.52,12.52,0,0,1,359,127ZM13.5,2A11.51,11.51,0,0,0,2,13.5v101A11.51,11.51,0,0,0,13.5,126H359a11.51,11.51,0,0,0,11.5-11.5V13.5A11.51,11.51,0,0,0,359,2Z" class="XYOOyhZl_10"></path><path d="M359,128H13.5A13.52,13.52,0,0,1,0,114.5V13.5A13.52,13.52,0,0,1,13.5,0H359a13.52,13.52,0,0,1,13.5,13.5v101A13.52,13.52,0,0,1,359,128ZM13.5,3A10.51,10.51,0,0,0,3,13.5v101A10.51,10.51,0,0,0,13.5,125H359a10.51,10.51,0,0,0,10.5-10.5V13.5A10.51,10.51,0,0,0,359,3Z" class="XYOOyhZl_11"></path><path width="369.5" height="1" d="M1.5 28 L371 28 L371 29 L1.5 29 Z" class="XYOOyhZl_12"></path><path d="M371.5,29.5H1v-2H371.5ZM2,28.5H2Z" class="XYOOyhZl_13"></path></g></g><style data-made-with="vivus-instant">.XYOOyhZl_0{stroke-dasharray:147 149;stroke-dashoffset:148;animation:XYOOyhZl_draw_0 6800ms linear 0ms infinite,XYOOyhZl_fade 6800ms linear 0ms infinite;}.XYOOyhZl_1{stroke-dasharray:166 168;stroke-dashoffset:167;animation:XYOOyhZl_draw_1 6800ms linear 0ms infinite,XYOOyhZl_fade 6800ms linear 0ms infinite;}.XYOOyhZl_2{stroke-dasharray:203 205;stroke-dashoffset:204;animation:XYOOyhZl_draw_2 6800ms linear 0ms infinite,XYOOyhZl_fade 6800ms linear 0ms infinite;}.XYOOyhZl_3{stroke-dasharray:163 165;stroke-dashoffset:164;animation:XYOOyhZl_draw_3 6800ms linear 0ms infinite,XYOOyhZl_fade 6800ms linear 0ms infinite;}.XYOOyhZl_4{stroke-dasharray:166 168;stroke-dashoffset:167;animation:XYOOyhZl_draw_4 6800ms linear 0ms infinite,XYOOyhZl_fade 6800ms linear 0ms infinite;}.XYOOyhZl_5{stroke-dasharray:129 131;stroke-dashoffset:130;animation:XYOOyhZl_draw_5 6800ms linear 0ms infinite,XYOOyhZl_fade 6800ms linear 0ms infinite;}.XYOOyhZl_6{stroke-dasharray:179 181;stroke-dashoffset:180;animation:XYOOyhZl_draw_6 6800ms linear 0ms infinite,XYOOyhZl_fade 6800ms linear 0ms infinite;}.XYOOyhZl_7{stroke-dasharray:123 125;stroke-dashoffset:124;animation:XYOOyhZl_draw_7 6800ms linear 0ms infinite,XYOOyhZl_fade 6800ms linear 0ms infinite;}.XYOOyhZl_8{stroke-dasharray:310 312;stroke-dashoffset:311;animation:XYOOyhZl_draw_8 6800ms linear 0ms infinite,XYOOyhZl_fade 6800ms linear 0ms infinite;}.XYOOyhZl_9{stroke-dasharray:238 240;stroke-dashoffset:239;animation:XYOOyhZl_draw_9 6800ms linear 0ms infinite,XYOOyhZl_fade 6800ms linear 0ms infinite;}.XYOOyhZl_10{stroke-dasharray:1937 1939;stroke-dashoffset:1938;animation:XYOOyhZl_draw_10 6800ms linear 0ms infinite,XYOOyhZl_fade 6800ms linear 0ms infinite;}.XYOOyhZl_11{stroke-dasharray:1937 1939;stroke-dashoffset:1938;animation:XYOOyhZl_draw_11 6800ms linear 0ms infinite,XYOOyhZl_fade 6800ms linear 0ms infinite;}.XYOOyhZl_12{stroke-dasharray:741 743;stroke-dashoffset:742;animation:XYOOyhZl_draw_12 6800ms linear 0ms infinite,XYOOyhZl_fade 6800ms linear 0ms infinite;}.XYOOyhZl_13{stroke-dasharray:745 747;stroke-dashoffset:746;animation:XYOOyhZl_draw_13 6800ms linear 0ms infinite,XYOOyhZl_fade 6800ms linear 0ms infinite;}@keyframes XYOOyhZl_draw{100%{stroke-dashoffset:0;}}@keyframes XYOOyhZl_fade{0%{stroke-opacity:1;}94.11764705882354%{stroke-opacity:1;}100%{stroke-opacity:0;}}@keyframes XYOOyhZl_draw_0{5.88235294117647%{stroke-dashoffset: 148}50%{ stroke-dashoffset: 0;}100%{ stroke-dashoffset: 0;}}@keyframes XYOOyhZl_draw_1{5.88235294117647%{stroke-dashoffset: 167}50%{ stroke-dashoffset: 0;}100%{ stroke-dashoffset: 0;}}@keyframes XYOOyhZl_draw_2{5.88235294117647%{stroke-dashoffset: 204}50%{ stroke-dashoffset: 0;}100%{ stroke-dashoffset: 0;}}@keyframes XYOOyhZl_draw_3{5.88235294117647%{stroke-dashoffset: 164}50%{ stroke-dashoffset: 0;}100%{ stroke-dashoffset: 0;}}@keyframes XYOOyhZl_draw_4{5.88235294117647%{stroke-dashoffset: 167}50%{ stroke-dashoffset: 0;}100%{ stroke-dashoffset: 0;}}@keyframes XYOOyhZl_draw_5{5.88235294117647%{stroke-dashoffset: 130}50%{ stroke-dashoffset: 0;}100%{ stroke-dashoffset: 0;}}@keyframes XYOOyhZl_draw_6{5.88235294117647%{stroke-dashoffset: 180}50%{ stroke-dashoffset: 0;}100%{ stroke-dashoffset: 0;}}@keyframes XYOOyhZl_draw_7{5.88235294117647%{stroke-dashoffset: 124}50%{ stroke-dashoffset: 0;}100%{ stroke-dashoffset: 0;}}@keyframes XYOOyhZl_draw_8{5.88235294117647%{stroke-dashoffset: 311}50%{ stroke-dashoffset: 0;}100%{ stroke-dashoffset: 0;}}@keyframes XYOOyhZl_draw_9{5.88235294117647%{stroke-dashoffset: 239}50%{ stroke-dashoffset: 0;}100%{ stroke-dashoffset: 0;}}@keyframes XYOOyhZl_draw_10{5.88235294117647%{stroke-dashoffset: 1938}50%{ stroke-dashoffset: 0;}100%{ stroke-dashoffset: 0;}}@keyframes XYOOyhZl_draw_11{5.88235294117647%{stroke-dashoffset: 1938}50%{ stroke-dashoffset: 0;}100%{ stroke-dashoffset: 0;}}@keyframes XYOOyhZl_draw_12{5.88235294117647%{stroke-dashoffset: 742}50%{ stroke-dashoffset: 0;}100%{ stroke-dashoffset: 0;}}@keyframes XYOOyhZl_draw_13{5.88235294117647%{stroke-dashoffset: 746}50%{ stroke-dashoffset: 0;}100%{ stroke-dashoffset: 0;}}</style></svg>